<?xml version="1.0" standalone="no"?>
<!DOCTYPE svg PUBLIC "-//W3C//DTD SVG 20010904//EN"
 "http://www.w3.org/TR/2001/REC-SVG-20010904/DTD/svg10.dtd">
<svg version="1.0" xmlns="http://www.w3.org/2000/svg"
 width="320.000000pt" height="320.000000pt" viewBox="0 0 320.000000 320.000000"
 preserveAspectRatio="xMidYMid meet">
<metadata>
Created by potrace 1.11, written by Peter Selinger 2001-2013
</metadata>
<g transform="translate(0.000000,320.000000) scale(0.100000,-0.100000)"
fill="#000000" stroke="none">
<path d="M50 3000 l0 -50 425 0 425 0 0 50 0 50 -425 0 -425 0 0 -50z"/>
<path d="M1050 3000 l0 -50 750 0 750 0 0 50 0 50 -750 0 -750 0 0 -50z"/>
<path d="M2700 3000 l0 -50 250 0 250 0 0 50 0 50 -250 0 -250 0 0 -50z"/>
<path d="M50 2800 l0 -50 70 0 70 0 0 50 0 50 -70 0 -70 0 0 -50z"/>
<path d="M500 2800 l0 -50 500 0 500 0 0 50 0 50 -500 0 -500 0 0 -50z"/>
<path d="M1810 2800 l0 -50 500 0 500 0 0 50 0 50 -500 0 -500 0 0 -50z"/>
<path d="M400 2600 l0 -50 250 0 250 0 0 50 0 50 -250 0 -250 0 0 -50z"/>
<path d="M1050 2600 l0 -50 225 0 225 0 0 -500 0 -500 50 0 50 0 0 500 0 500
225 0 225 0 0 50 0 50 -500 0 -500 0 0 -50z"/>
<path d="M2200 2600 l0 -50 500 0 500 0 0 50 0 50 -500 0 -500 0 0 -50z"/>
<path d="M190 2400 l0 -50 555 0 555 0 0 -240 0 -240 50 0 50 0 0 290 0 290
-605 0 -605 0 0 -50z"/>
<path d="M1700 2310 l0 -140 50 0 50 0 0 90 0 90 700 0 700 0 0 50 0 50 -750
0 -750 0 0 -140z"/>
<path d="M0 2180 l0 -50 555 0 555 0 0 -400 0 -400 50 0 50 0 0 450 0 450
-605 0 -605 0 0 -50z"/>
<path d="M1890 1786 l0 -443 50 1 50 0 0 393 0 393 605 0 605 0 0 50 0 50
-655 0 -655 0 0 -444z"/>
<path d="M1700 1700 l0 -350 50 0 50 0 0 350 0 350 -50 0 -50 0 0 -350z"/>
<path d="M1300 1535 l0 -225 50 0 50 0 0 225 0 225 -50 0 -50 0 0 -225z"/>
<path d="M1500 930 l0 -500 50 0 50 0 0 500 0 500 -50 0 -50 0 0 -500z"/>
<path d="M1300 945 l0 -275 50 0 50 0 0 275 0 275 -50 0 -50 0 0 -275z"/>
<path d="M1710 945 l0 -275 50 0 50 0 0 275 0 275 -50 0 -50 0 0 -275z"/>
<path d="M1110 654 l0 -503 48 2 47 2 3 501 2 500 -50 0 -50 1 0 -503z"/>
<path d="M1890 655 l0 -501 50 0 50 -1 0 502 0 502 -50 -1 -50 0 0 -501z"/>
<path d="M1302 353 l3 -197 38 1 c20 0 42 1 47 2 6 1 10 73 10 196 l0 195 -50
0 -50 0 2 -197z"/>
<path d="M1712 353 l3 -197 48 -1 47 -1 0 198 0 198 -50 0 -50 0 2 -197z"/>
<path d="M1500 250 l0 -100 50 0 50 0 0 100 0 100 -50 0 -50 0 0 -100z"/>
</g>
</svg>
